<svg width="125" height="126" viewBox="0 0 125 126" fill="none" xmlns="http://www.w3.org/2000/svg">
<g clip-path="url(#clip0)">
<path d="M62.1541 110.549C88.2772 110.549 109.859 88.918 109.859 62.7949C109.859 36.6719 88.2772 15.0898 62.1053 15.0898C35.9823 15.0898 14.4003 36.6719 14.4003 62.7949C14.4003 88.918 36.0311 110.549 62.1541 110.549ZM64.4002 21.9258C69.3319 23.293 73.8729 29.1035 76.9979 37.3066C73.1893 38.0879 68.9901 38.5273 64.4002 38.625V21.9258ZM47.2616 37.3066C50.3866 29.1035 54.9276 23.293 59.8592 21.9258V38.625C55.2694 38.5273 51.0702 38.0879 47.2616 37.3066ZM33.8827 32.5215C38.5702 28.1758 44.283 24.8555 50.6307 23.0488C47.5545 26.2227 44.8202 30.7148 42.7205 36.2324C39.4002 35.2559 36.4217 34.0352 33.8827 32.5215ZM73.6288 23.0488C79.9764 24.8555 85.6893 28.1758 90.3768 32.5215C87.8377 34.0352 84.8592 35.2559 81.5389 36.2324C79.4393 30.7148 76.7049 26.2227 73.6288 23.0488ZM85.9823 60.4512C85.787 53.0781 84.7127 46.291 82.9549 40.3828C87.0077 39.2109 90.5721 37.6484 93.5018 35.793C99.2635 42.4824 102.877 51.0762 103.414 60.4512H85.9823ZM20.8455 60.4512C21.3827 51.0762 24.9959 42.4824 30.7577 35.793C33.6385 37.6484 37.2518 39.2109 41.3045 40.3828C39.5467 46.291 38.4725 53.0781 38.2772 60.4512H20.8455ZM64.4002 60.4512V43.166C69.3807 43.0195 74.0682 42.4824 78.4139 41.5547C80.0741 47.1699 81.0995 53.6641 81.2948 60.4512H64.4002ZM42.9647 60.4512C43.16 53.6641 44.1854 47.1699 45.8455 41.5547C50.1912 42.4824 54.8788 43.0195 59.8592 43.166V60.4512H42.9647ZM20.8455 65.041H38.2772C38.4237 72.5117 39.5467 79.3965 41.3045 85.3047C37.2518 86.5254 33.7362 88.0391 30.8553 89.8457C25.0448 83.1562 21.3338 74.5137 20.8455 65.041ZM42.9647 65.041H59.8592V82.5703C54.8788 82.668 50.1912 83.2539 45.8455 84.1816C44.1854 78.4688 43.1112 71.9258 42.9647 65.041ZM64.4002 82.5703V65.041H81.2948C81.1483 71.9258 80.0741 78.4688 78.4139 84.1816C74.0682 83.2539 69.3807 82.668 64.4002 82.5703ZM82.9549 85.3047C84.7127 79.3965 85.8358 72.5117 85.9823 65.041H103.463C102.975 74.5137 99.2635 83.1562 93.453 89.8946C90.5721 88.0879 87.0077 86.5254 82.9549 85.3047ZM64.4002 87.1113C68.9901 87.209 73.1893 87.6484 76.9979 88.4297C73.8729 96.6329 69.3319 102.443 64.4002 103.811V87.1113ZM47.2616 88.4297C51.0702 87.6484 55.2694 87.209 59.8592 87.1113V103.811C54.9276 102.443 50.3866 96.6329 47.2616 88.4297ZM33.9803 93.1172C36.5194 91.6524 39.4002 90.4805 42.7205 89.504C44.7713 94.875 47.408 99.3184 50.4842 102.492C44.2342 100.686 38.619 97.4141 33.9803 93.1172ZM81.5389 89.504C84.8592 90.4805 87.7889 91.7012 90.2791 93.1661C85.6405 97.4629 80.0252 100.734 73.7752 102.541C76.8026 99.3184 79.4881 94.9239 81.5389 89.504Z" fill="black"/>
</g>
<defs>
<clipPath id="clip0">
<rect width="125" height="125" fill="white" transform="translate(0 0.170898)"/>
</clipPath>
</defs>
</svg>
