<svg width="125" height="126" viewBox="0 0 125 126" fill="none" xmlns="http://www.w3.org/2000/svg">
<g clip-path="url(#clip0)">
<path d="M59.5216 59.127C60.4494 59.127 61.133 58.834 61.6701 58.248L82.4709 37.2031C83.3498 36.3242 83.6427 35.543 83.6427 34.7129C83.6427 33.834 83.2521 33.0039 82.4709 32.2227L61.7189 10.9824C61.1818 10.3965 60.4982 10.0547 59.4728 10.0547C57.7638 10.0547 56.5431 11.4219 56.5431 13.1309C56.5431 13.9609 56.8361 14.6934 57.422 15.3281L72.9005 30.8066C69.5802 30.0742 65.8693 29.6836 62.1584 29.6836C38.4767 29.6836 19.5802 48.4824 19.5802 72.1152C19.5802 95.8457 38.4767 114.742 62.1584 114.742C85.84 114.742 104.688 95.8457 104.688 72.1152C104.688 70.3086 103.418 68.9902 101.563 68.9902C99.8048 68.9902 98.6818 70.3086 98.6818 72.1152C98.6818 92.5254 82.4709 108.736 62.1584 108.736C41.797 108.736 25.6349 92.5254 25.6349 72.1152C25.6349 51.8027 41.797 35.6895 62.1584 35.6895C66.6505 35.6895 70.8498 36.1289 74.3654 37.0078L57.422 53.9512C56.8361 54.5859 56.5431 55.3184 56.5431 56.0996C56.5431 57.8086 57.8127 59.127 59.5216 59.127Z" fill="black"/>
</g>
<defs>
<clipPath id="clip0">
<rect width="125" height="125" fill="white" transform="translate(0 0.0498047)"/>
</clipPath>
</defs>
</svg>
