<svg width="32" height="32" viewBox="0 0 32 32" fill="none" xmlns="http://www.w3.org/2000/svg">
<path d="M16 32C24.7529 32 32 24.7374 32 16.0002C32 7.24722 24.7371 0 15.9843 0C7.24714 0 0 7.24722 0 16.0002C0 24.7374 7.26289 32 16 32ZM14.0237 25.6003C13.4274 26.353 12.4707 25.9295 12.6275 25.0197L13.8197 18.4941H9.58426C8.7217 18.4941 8.42357 17.804 9.0982 16.9726L17.4431 6.35284C18.0393 5.61556 19.0117 6.03929 18.855 6.94909L17.6471 13.4744H21.8979C22.7608 13.4744 23.0589 14.1491 22.3843 14.9805L14.0237 25.6003Z" fill="black"/>
</svg>
