<svg width="125" height="126" viewBox="0 0 125 126" fill="none" xmlns="http://www.w3.org/2000/svg">
<g clip-path="url(#clip0)">
<path d="M36.4014 114.818H88.5985C98.0712 114.818 102.856 109.984 102.856 100.463V25.1699C102.856 15.6484 98.0712 10.7656 88.5985 10.7656H36.4014C27.0264 10.7656 22.1436 15.6484 22.1436 25.1699V100.463C22.1436 109.984 26.9776 114.818 36.4014 114.818ZM36.6944 108.812C31.0791 108.812 28.1983 105.834 28.1983 100.316V25.3164C28.1983 19.8964 31.0791 16.8203 36.7432 16.8203H88.3056C93.9208 16.8203 96.8506 19.7988 96.8506 25.3164V100.316C96.8506 105.834 93.9208 108.812 88.3056 108.812H36.6944ZM40.21 55.8828C41.2354 55.8828 41.919 55.3456 42.2608 54.0761L44.4092 48.2167H54.2725L56.4697 54.0761C56.8115 55.3456 57.4951 55.8828 58.5205 55.8828C59.8389 55.8828 60.6201 55.1503 60.6201 53.8808C60.6201 53.5878 60.5225 53.0996 60.376 52.6113L52.3682 31.371C51.8311 29.8085 50.9033 29.0761 49.3408 29.0761C47.8272 29.0761 46.8994 29.8085 46.3623 31.371L38.3545 52.6113C38.208 53.0996 38.1104 53.5878 38.1104 53.8808C38.1104 55.1503 38.8916 55.8828 40.21 55.8828ZM69.6533 37.1816H85.8643C87.2315 37.1816 88.2569 36.1074 88.2569 34.7402C88.2569 33.4218 87.2315 32.3476 85.8643 32.3476H69.6533C68.2373 32.3476 67.2119 33.4218 67.2119 34.7402C67.2119 36.1074 68.2373 37.1816 69.6533 37.1816ZM45.4346 44.7499L49.2432 33.8613H49.4385L53.2471 44.7499H45.4346ZM69.6533 54.3203H85.8643C87.2315 54.3203 88.2569 53.246 88.2569 51.8788C88.2569 50.5605 87.2315 49.4863 85.8643 49.4863H69.6533C68.2373 49.4863 67.2119 50.5605 67.2119 51.8788C67.2119 53.246 68.2373 54.3203 69.6533 54.3203ZM36.1084 96.5078H38.794L46.0694 89.4765C47.0947 88.5 48.169 88.0605 49.1944 88.0605C50.2197 88.0605 51.3916 88.5488 52.3682 89.4765L56.5674 93.2851L67.2608 83.9101C68.5303 82.8847 69.7998 82.3476 71.0205 82.3476C72.2901 82.3476 73.7061 82.7871 74.7315 83.9589L85.5713 96.166H88.2569V70.9706C88.2569 66.6738 86.1084 64.5253 81.8115 64.5253H42.6026C38.4033 64.5253 36.1084 66.6738 36.1084 70.9706V96.5078ZM52.7588 83.8613C49.6826 83.8613 47.1436 81.2734 47.1436 78.1972C47.1436 75.121 49.6826 72.4843 52.7588 72.582C55.8838 72.6308 58.4229 75.121 58.4229 78.1972C58.4229 81.2734 55.8838 83.8613 52.7588 83.8613Z" fill="black"/>
</g>
<defs>
<clipPath id="clip0">
<rect width="125" height="125" fill="white" transform="translate(0 0.291992)"/>
</clipPath>
</defs>
</svg>
