<svg width="125" height="126" viewBox="0 0 125 126" fill="none" xmlns="http://www.w3.org/2000/svg">
<g clip-path="url(#clip0)">
<path d="M49.057 36.3443C49.5453 36.3443 49.7406 36.0513 49.8383 35.6119C51.4984 28.0923 51.5473 27.5552 59.5063 25.9439C59.9945 25.8463 60.2875 25.6021 60.2875 25.1627C60.2875 24.7232 59.9945 24.4791 59.5063 24.3814C51.5473 22.7701 51.4984 22.1841 49.8383 14.7134C49.7406 14.274 49.5453 13.981 49.057 13.981C48.6176 13.981 48.4223 14.274 48.3246 14.7134C46.6156 22.1841 46.6645 22.7701 38.6566 24.3814C38.1684 24.4791 37.8754 24.7232 37.8754 25.1627C37.8754 25.5533 38.1684 25.8463 38.6566 25.9439C46.6645 27.5552 46.6156 28.0923 48.3246 35.6119C48.4223 36.0513 48.6176 36.3443 49.057 36.3443ZM88.4125 52.9459C88.9496 52.9459 89.2426 52.6041 89.3402 52.067C91.1469 43.3756 91.2445 42.5943 100.522 40.8853C101.059 40.7877 101.4 40.4947 101.4 39.9576C101.4 39.4205 101.059 39.0787 100.522 38.981C91.2445 37.3209 91.1469 36.4908 89.3402 27.7994C89.2426 27.3111 88.9496 26.9693 88.4125 26.9693C87.9242 26.9693 87.6313 27.3111 87.5336 27.7994C85.727 36.4908 85.6293 37.3209 76.352 38.981C75.8148 39.0787 75.4242 39.4205 75.4242 39.9576C75.4242 40.4947 75.8148 40.7877 76.352 40.8853C85.6293 42.5943 85.727 43.3756 87.5336 52.067C87.6313 52.6041 87.9242 52.9459 88.4125 52.9459ZM22.9828 66.6666C23.4711 66.6666 23.8129 66.3248 23.9105 65.7877C25.6684 57.0963 25.8148 56.315 35.0922 54.606C35.6293 54.5084 35.9711 54.2154 35.9711 53.6783C35.9711 53.1412 35.6293 52.7994 35.0922 52.7017C25.8148 51.0416 25.6684 50.2603 23.9105 41.5201C23.8129 41.0318 23.4711 40.69 22.9828 40.69C22.4945 40.69 22.1527 41.0318 22.0551 41.5201C20.2973 50.2603 20.1996 51.0416 10.8734 52.7017C10.3363 52.7994 9.99451 53.1412 9.99451 53.6783C9.99451 54.2154 10.3363 54.5084 10.8734 54.606C20.1996 56.315 20.2973 57.0963 22.0551 65.7877C22.1527 66.3248 22.4945 66.6666 22.9828 66.6666ZM107.406 109.782C109.213 111.588 112.045 111.54 113.705 109.782C115.414 107.975 115.463 105.29 113.705 103.483L66.977 56.5591C65.2191 54.8013 62.3383 54.8502 60.6781 56.5591C58.9203 58.3658 58.9691 61.1002 60.6781 62.858L107.406 109.782ZM78.2074 76.2857L63.6078 61.6373C62.8266 60.856 62.6313 60.0748 63.3637 59.2935C64.0961 58.6099 64.8773 58.7564 65.7074 59.5865L80.307 74.1861L78.2074 76.2857ZM46.1762 108.659C46.8598 108.659 47.3969 108.17 47.4457 107.389C49.2523 94.3521 49.5941 94.2544 62.8754 91.9595C63.7055 91.813 64.1938 91.4224 64.1938 90.6411C64.1938 89.9087 63.7055 89.4693 63.0219 89.3228C49.643 86.7349 49.2523 86.9302 47.4457 73.8931C47.3969 73.1119 46.8598 72.6236 46.1762 72.6236C45.4926 72.6236 44.9555 73.1119 44.8578 73.8443C43.0023 87.0279 42.7582 87.1744 29.3305 89.3228C28.6469 89.4204 28.1586 89.9087 28.1586 90.6411C28.1586 91.3736 28.6469 91.813 29.3305 91.9595C42.7582 94.5474 42.9535 94.4009 44.8578 107.487C44.9555 108.17 45.4926 108.659 46.1762 108.659Z" fill="black"/>
</g>
<defs>
<clipPath id="clip0">
<rect width="125" height="125" fill="white" transform="translate(0 0.0498047)"/>
</clipPath>
</defs>
</svg>
