<svg width="125" height="125" viewBox="0 0 125 125" fill="none" xmlns="http://www.w3.org/2000/svg">
<g clip-path="url(#clip0)">
<path d="M30.9464 87.6382C44.9173 87.6382 56.0846 76.2333 56.0846 62.5V62.3574C58.223 61.4546 60.599 61.0745 62.4999 61.0745C64.4006 61.0745 66.7766 61.4546 68.915 62.3574V62.5C68.915 76.3284 80.0823 87.6382 94.0529 87.6382C107.217 87.6382 118.004 77.4689 119.097 64.686H124.703C126.652 64.686 127.413 63.593 127.413 62.0248V60.6467C127.413 58.9835 126.652 57.9856 124.703 57.9856H118.811C116.673 46.2956 106.409 37.3618 94.0529 37.3618C82.1732 37.3618 72.2889 45.5828 69.6279 56.5125C67.3944 55.5621 64.6857 55.2294 62.4999 55.2294C60.3139 55.2294 57.6053 55.5621 55.3717 56.5125C52.7107 45.5828 42.7789 37.3618 30.9464 37.3618C18.5912 37.3618 8.3268 46.2956 6.18836 57.9856H0.295839C-1.65246 57.9856 -2.41278 58.9835 -2.41278 60.6467V62.0248C-2.41278 63.593 -1.65246 64.686 0.295839 64.686H5.9033C6.99622 77.4689 17.7833 87.6382 30.9464 87.6382ZM30.9464 82.0784C20.1593 82.0784 11.3681 73.3346 11.3681 62.5C11.3681 51.6654 20.1593 42.8742 30.9464 42.8742C41.7335 42.8742 50.5722 51.6654 50.5722 62.5C50.5722 73.3346 41.876 82.0784 30.9464 82.0784ZM94.0529 82.0784C83.1236 82.0784 74.4274 73.3346 74.4274 62.5C74.4274 51.6654 83.1236 42.8742 94.0529 42.8742C104.84 42.8742 113.632 51.6654 113.632 62.5C113.632 73.3346 104.84 82.0784 94.0529 82.0784Z" fill="black"/>
</g>
<defs>
<clipPath id="clip0">
<rect width="125" height="125" fill="white"/>
</clipPath>
</defs>
</svg>
