<svg width="125" height="126" viewBox="0 0 125 126" fill="none" xmlns="http://www.w3.org/2000/svg">
<g clip-path="url(#clip0)">
<path d="M36.4014 114.697H88.5985C98.0712 114.697 102.856 109.863 102.856 100.342V25.0488C102.856 15.5273 98.0712 10.6445 88.5985 10.6445H36.4014C27.0264 10.6445 22.1436 15.5273 22.1436 25.0488V100.342C22.1436 109.863 26.9776 114.697 36.4014 114.697ZM36.6944 108.691C31.0791 108.691 28.1983 105.713 28.1983 100.195V25.1953C28.1983 19.7753 31.0791 16.6992 36.7432 16.6992H88.3056C93.9208 16.6992 96.8506 19.6777 96.8506 25.1953V100.195C96.8506 105.713 93.9208 108.691 88.3056 108.691H36.6944ZM43.335 36.7675H81.7139C83.0811 36.7675 84.1553 35.6933 84.1553 34.3261C84.1553 33.0077 83.0811 31.9824 81.7139 31.9824H43.335C41.919 31.9824 40.8936 33.0077 40.8936 34.3261C40.8936 35.6933 41.919 36.7675 43.335 36.7675ZM43.335 53.9062H81.7139C83.0811 53.9062 84.1553 52.832 84.1553 51.4648C84.1553 50.1464 83.0811 49.121 81.7139 49.121H43.335C41.919 49.121 40.8936 50.1464 40.8936 51.4648C40.8936 52.832 41.919 53.9062 43.335 53.9062ZM43.335 71.0449H61.8408C63.208 71.0449 64.2822 70.0195 64.2822 68.6523C64.2822 67.2851 63.208 66.2109 61.8408 66.2109H43.335C41.919 66.2109 40.8936 67.2851 40.8936 68.6523C40.8936 70.0195 41.919 71.0449 43.335 71.0449Z" fill="black"/>
</g>
<defs>
<clipPath id="clip0">
<rect width="125" height="125" fill="white" transform="translate(0 0.170898)"/>
</clipPath>
</defs>
</svg>
