<svg width="125" height="126" viewBox="0 0 125 126" fill="none" xmlns="http://www.w3.org/2000/svg">
<path d="M77.6855 112.427H106.298C108.056 112.427 108.984 111.597 108.984 110.132C108.984 108.716 108.056 107.886 106.298 107.886H94.58V17.1148H106.298C108.056 17.1148 108.984 16.2847 108.984 14.8687C108.984 13.4039 108.056 12.6226 106.298 12.6226H77.6855C75.9765 12.6226 75.0488 13.4039 75.0488 14.8687C75.0488 16.2847 75.9765 17.1148 77.6855 17.1148H89.4042V107.886H77.6855C75.9765 107.886 75.0488 108.716 75.0488 110.132C75.0488 111.597 75.9765 112.427 77.6855 112.427ZM44.3359 98.9507C46.5332 98.9507 47.9492 97.5347 47.9492 95.3374V34.3023H69.4824C71.3867 34.3023 72.7539 33.0816 72.7539 31.0797C72.7539 29.1754 71.3867 27.9058 69.4824 27.9058H19.3359C17.3828 27.9058 16.0156 29.1754 16.0156 31.0797C16.0156 33.0816 17.3828 34.3023 19.3359 34.3023H40.8203V95.3374C40.8203 97.5347 42.1874 98.9507 44.3359 98.9507Z" fill="black"/>
</svg>
