<svg width="125" height="125" viewBox="0 0 125 125" fill="none" xmlns="http://www.w3.org/2000/svg">
<path d="M62.5245 111.035C63.4034 111.035 64.6241 110.645 65.7471 110.01C93.0909 94.1895 102.124 88.2324 102.124 71.4355V34.3261C102.124 29.1015 100.171 27.3925 95.6788 25.5859C88.7452 22.8027 73.3643 17.0899 66.3819 14.6973C65.1124 14.2579 63.794 13.9648 62.5245 13.9648C61.2061 13.9648 59.8878 14.3067 58.6182 14.6973C51.6846 16.9434 36.2549 22.8515 29.3213 25.5859C24.8292 27.3437 22.876 29.1015 22.876 34.3261V71.4355C22.876 88.2324 32.0069 94.043 59.253 110.01C60.376 110.645 61.5967 111.035 62.5245 111.035ZM62.5245 104.248C61.6944 104.248 60.8155 103.857 59.6436 103.174C36.9874 89.0625 28.8819 85.0097 28.8819 70.166V35.4003C28.8819 32.9589 29.3213 32.0312 31.1768 31.2988C37.671 28.7109 53.6378 23.0468 60.1807 20.4589C61.0596 20.0683 61.8897 19.873 62.5245 19.873C63.1104 19.873 63.8917 20.1171 64.8682 20.4589C71.3624 23.0468 87.2315 28.9062 93.8233 31.2988C95.6788 31.9824 96.1182 32.9589 96.1182 35.4003V70.166C96.1182 85.0097 87.9151 88.9648 65.3565 103.174C64.1846 103.857 63.3057 104.248 62.5245 104.248ZM57.251 85.5468C58.4717 85.5468 59.546 84.9609 60.3272 83.789L85.6202 44.1894C86.1085 43.457 86.5479 42.6269 86.5479 41.7968C86.5479 39.9902 84.9854 38.916 83.3741 38.916C82.3975 38.916 81.3721 39.5019 80.6885 40.625L57.1046 77.9296L44.3116 62.207C43.4327 61.0839 42.5538 60.6933 41.4796 60.6933C39.8682 60.6933 38.4522 62.0117 38.4522 63.7695C38.4522 64.5996 38.794 65.4785 39.3799 66.2109L53.9796 83.789C55.0538 85.0585 55.9815 85.5468 57.251 85.5468Z" fill="black"/>
</svg>
