<svg width="125" height="126" viewBox="0 0 125 126" fill="none" xmlns="http://www.w3.org/2000/svg">
<g clip-path="url(#clip0)">
<path d="M37.9163 13.0625H85.6702C85.4749 9.8887 83.6194 8.0332 80.2015 8.0332H43.3851C39.9671 8.0332 38.1116 9.8887 37.9163 13.0625ZM29.762 25.5625H93.5804C93.0921 22.1934 91.3831 20.1914 87.721 20.1914H35.6214C31.9104 20.1914 30.2015 22.1934 29.762 25.5625ZM34.2054 118.385H91.0413C99.6351 118.385 104.469 113.502 104.469 104.127V47.9746C104.469 38.5508 99.6351 33.7168 90.1136 33.7168H34.2054C24.6839 33.7168 19.8011 38.502 19.8011 47.9746V104.127C19.8011 113.551 24.6839 118.385 34.2054 118.385ZM56.9594 112.33H51.7836C48.7562 109.205 51.7347 99.0977 57.8382 94.166C55.0061 91.9199 51.0022 90.5039 45.7776 90.5039C35.719 90.5039 27.9065 96.5098 25.8558 102.662V48.2676C25.8558 42.6523 28.8343 39.7227 34.303 39.7227H89.9671C95.3382 39.7227 98.4632 42.6523 98.4632 48.2676V99.1953C94.9964 94.7031 87.2327 90.6016 77.8577 90.6016C63.5022 90.6016 54.469 100.465 54.469 108.814C54.469 111.256 56.0316 112.33 56.9594 112.33ZM77.9066 84.6445C83.9125 84.6445 88.7952 79.3223 88.7952 72.4375C88.7952 65.748 83.8148 60.5234 77.9066 60.5234C71.9008 60.5234 66.8226 65.8457 66.8714 72.4863C66.8714 79.3223 71.8031 84.6445 77.9066 84.6445ZM45.8265 85.2793C51.0511 85.2793 55.3969 80.6895 55.3969 74.6348C55.3969 68.8242 51.0022 64.332 45.8265 64.332C40.6019 64.332 36.2073 68.873 36.2073 74.6836C36.2073 80.6895 40.553 85.2793 45.8265 85.2793Z" fill="black"/>
</g>
<defs>
<clipPath id="clip0">
<rect width="125" height="125" fill="white" transform="translate(0 0.291992)"/>
</clipPath>
</defs>
</svg>
