<svg width="125" height="126" viewBox="0 0 125 126" fill="none" xmlns="http://www.w3.org/2000/svg">
<g clip-path="url(#clip0)">
<path d="M23.5351 109.251H101.465C110.791 109.251 115.381 104.759 115.381 95.5303V47.337C115.381 38.1084 110.791 33.6163 101.465 33.6163H89.6972V29.1241C89.6972 20.4327 85.4491 16.5752 77.0507 16.5752H47.9491C39.8925 16.5752 35.3027 20.4327 35.3027 29.1241V33.6163H23.5351C14.2577 33.6163 9.61908 38.1084 9.61908 47.337V95.5303C9.61908 104.759 14.2577 109.251 23.5351 109.251ZM41.162 28.7823C41.162 24.1436 43.2617 22.044 47.9003 22.044H77.1484C81.787 22.044 83.8378 24.1436 83.8378 28.7823V33.6163H41.162V28.7823ZM15.6738 47.6299C15.6738 42.1612 18.2617 39.5733 23.5839 39.5733H101.416C106.738 39.5733 109.326 42.1612 109.326 47.6299V61.0088H15.6738V47.6299ZM23.5839 103.294C18.2617 103.294 15.6738 100.706 15.6738 95.2374V66.6729H42.0898V69.8467C42.0898 74.3389 44.7753 76.9756 49.3163 76.9756H75.6835C80.2245 76.9756 82.9101 74.3389 82.9101 69.8467V66.6729H109.326V95.2374C109.326 100.706 106.738 103.294 101.416 103.294H23.5839Z" fill="black"/>
</g>
<defs>
<clipPath id="clip0">
<rect width="125" height="125" fill="white" transform="translate(0 0.413086)"/>
</clipPath>
</defs>
</svg>
