<svg width="400" height="210" viewBox="0 0 400 210" fill="none" xmlns="http://www.w3.org/2000/svg">
<g clip-path="url(#clip0)">
<path d="M54.3436 111.278L74.6428 142.527L79.9522 105.655L89.9332 103.463L99.6916 147.904L91.9999 149.593L88.7828 134.942L85.243 115.179L79.6381 152.308L74.1135 153.521L53.506 122.18L58.5652 141.578L61.7823 156.229L54.0905 157.918L44.3321 113.476L54.3436 111.278Z" fill="white"/>
<path d="M101.799 129.813C101.089 126.577 101.091 123.527 101.805 120.661C102.515 117.775 103.878 115.385 105.894 113.492C107.906 111.579 110.417 110.291 113.429 109.63C117.885 108.652 121.812 109.293 125.209 111.555C128.627 113.812 130.968 117.286 132.233 121.978L132.646 123.711C133.361 126.967 133.369 130.015 132.67 132.856C131.992 135.693 130.637 138.07 128.605 139.988C126.594 141.901 124.062 143.193 121.01 143.863C116.35 144.886 112.276 144.16 108.789 141.684C105.318 139.182 103.015 135.347 101.88 130.179L101.799 129.813ZM109.357 128.825C110.103 132.223 111.391 134.735 113.219 136.36C115.043 137.964 117.207 138.491 119.709 137.942C122.212 137.392 123.941 135.989 124.896 133.732C125.871 131.47 125.945 128.457 125.119 124.692C124.386 121.355 123.083 118.868 121.209 117.232C119.356 115.591 117.198 115.041 114.736 115.582C112.314 116.114 110.604 117.503 109.604 119.748C108.599 121.974 108.517 124.999 109.357 128.825Z" fill="white"/>
<path d="M140.851 104.248L141.903 108.017C143.697 104.53 146.578 102.351 150.546 101.48C157.424 99.9697 161.788 103.139 163.639 110.987L168.431 132.81L161.014 134.439L156.316 113.043C155.856 110.947 155.059 109.501 153.924 108.705C152.805 107.884 151.218 107.699 149.163 108.15C146.172 108.807 144.241 110.65 143.37 113.678L148.531 137.18L141.114 138.809L133.862 105.783L140.851 104.248Z" fill="white"/>
<path d="M169.684 114.906C168.974 111.671 168.976 108.62 169.691 105.755C170.401 102.869 171.764 100.479 173.779 98.5858C175.791 96.6724 178.302 95.3851 181.314 94.7238C185.77 93.7453 189.697 94.3867 193.095 96.6482C196.512 98.9052 198.854 102.38 200.119 107.072L200.531 108.805C201.246 112.061 201.254 115.109 200.556 117.95C199.877 120.786 198.522 123.164 196.49 125.082C194.479 126.995 191.947 128.287 188.895 128.957C184.235 129.98 180.162 129.254 176.674 126.777C173.203 124.276 170.9 120.441 169.765 115.273L169.684 114.906ZM177.242 113.919C177.988 117.317 179.276 119.828 181.104 121.453C182.928 123.058 185.092 123.585 187.595 123.036C190.098 122.486 191.826 121.083 192.781 118.825C193.756 116.563 193.83 113.55 193.004 109.786C192.271 106.449 190.968 103.962 189.094 102.326C187.241 100.685 185.083 100.135 182.621 100.676C180.199 101.207 178.489 102.596 177.489 104.842C176.484 107.068 176.402 110.093 177.242 113.919Z" fill="white"/>
<path d="M228.329 117.365C223.766 118.367 222.15 120.556 217.274 121.627C214.398 122.258 212.741 121.574 212.329 119.699C212.014 118.261 212.587 116.693 213.521 114.981C215.221 115.263 217.054 115.254 218.992 114.828C226.243 113.236 229.736 107.358 228.281 100.732C227.471 97.0439 225.473 93.6166 222.396 91.5402L223.994 88.3718L227.586 89.8109L228.661 90.2301L225.971 77.978L225.721 78.0329L219.658 90.1102C217.459 89.348 214.919 89.1195 212.044 89.7509C205.23 91.2471 201.086 96.5471 202.692 103.861C203.667 108.299 206.282 111.853 209.832 113.695L206.281 123.189C207.99 125.304 211.59 126.479 215.716 125.573C218.717 124.914 220.573 123.523 223.261 122.933C226.324 122.261 228.551 123.148 229.127 125.773C229.676 128.274 227.644 130.358 223.768 131.209C218.767 132.307 213.349 131.204 207.771 126.99L207.146 127.127L208.944 135.316C213.323 135.862 219.072 135.189 224.011 134.104C231.2 132.526 237.841 127.857 236.496 121.731C235.864 118.855 233.267 116.28 228.329 117.365ZM211.751 92.8948C216.752 91.7967 223.743 97.0762 224.965 102.64C225.624 105.64 224.326 108.087 221.138 108.787C216.45 109.817 209.201 104.856 207.938 99.1051C207.28 96.1045 208.563 93.5948 211.751 92.8948Z" fill="white"/>
<path d="M243.346 94.3443C244.218 89.9593 245.735 88.5123 247.735 88.073C249.611 87.6612 251.213 88.0957 255.56 92.9728L255.984 92.8142L252.359 82.2744C250.903 81.6113 249.446 81.5382 248.258 81.799C244.632 82.5951 243.064 85.2984 242.107 90.4885L241.856 90.5434L240.47 84.2298L229.468 86.6456L229.537 86.9582L235.32 89.4232L240.481 112.927L236.263 117.588L236.331 117.901L253.584 114.113L253.516 113.8L247.094 111.41L243.346 94.3443Z" fill="white"/>
<path d="M278.148 108.719L289.15 106.303L289.095 106.053L283.298 103.525L279.18 84.7722C277.753 78.2711 274.51 76.0346 268.946 77.2562C267.008 77.6818 264.805 78.6897 263.267 80.338L260.275 77.4566L260.025 77.5115L259.029 89.9834L259.306 90.0535C263.037 83.4682 265.557 80.6214 267.932 80.0998C270.433 79.5508 271.456 81.2263 272.485 85.9146L273.515 90.6029C271.809 89.9947 269.359 89.8775 266.733 90.454C259.857 91.9639 256.831 97.2806 258.203 103.532C259.562 109.72 264.227 112.759 270.103 111.468C273.666 110.686 276.129 108.179 277.047 104.898L277.297 104.843L278.148 108.719ZM276.315 103.355C275.321 103.901 273.799 104.432 272.424 104.734C266.798 105.969 263.319 103.85 262.481 100.037C261.699 96.4737 263.42 93.8679 266.546 93.1816C269.609 92.509 272.445 93.7865 274.874 96.7915L276.315 103.355Z" fill="white"/>
<path d="M301.581 102.853C303.149 103.426 305.939 103.599 308.439 103.05C316.128 101.362 320.381 93.8756 318.048 83.2488C316.126 74.4973 310.498 68.2632 303.435 69.8143C299.121 70.7614 296.746 73.9695 295.767 76.6743L295.517 76.7292L294.557 72.3535L283.242 74.8379L283.297 75.0879L289.094 77.6155L296.932 113.309L292.727 118.033L292.782 118.283L304.409 115.73L301.581 102.853ZM296.187 78.2859C296.597 78.0648 297.931 77.5753 299.181 77.3007C306.182 75.7634 312.522 80.4651 314.293 88.529C315.583 94.405 313.429 98.0232 309.303 98.9291C305.678 99.7252 302.265 98.5087 300.167 96.414L296.187 78.2859Z" fill="white"/>
<path d="M325.757 50.8904L314.13 53.4435L314.185 53.6936L320.064 56.5962L328.204 93.665L323.999 98.3887L324.054 98.6388L340.682 94.9876L340.627 94.7376L334.83 92.2101L330.712 73.4568C331.125 69.3692 333.186 66.8198 335.311 66.3531C338.437 65.6668 339.834 67.85 340.822 72.3508L345.558 93.917L357.185 91.3639L357.13 91.1139L351.333 88.5863L347.133 69.4581C345.952 64.0821 342.357 61.1367 336.793 62.3583C333.668 63.0446 331.227 64.7601 329.422 67.5808L325.757 50.8904Z" fill="white"/>
<path fill-rule="evenodd" clip-rule="evenodd" d="M352.735 138.839C384.702 114.349 401.287 86.7759 395.823 61.8913C390.359 37.0067 363.747 18.9187 324.461 10.0748C285.261 1.2504 233.82 1.73656 179.447 13.6758C125.074 25.6149 78.1611 46.7257 46.2649 71.1613C14.2983 95.6509 -2.28706 123.224 3.17713 148.109C8.64131 172.993 35.253 191.081 74.539 199.925C113.738 208.75 165.18 208.264 219.553 196.324C273.926 184.385 320.839 163.274 352.735 138.839ZM219.767 197.301C328.733 173.374 407.993 112.653 396.799 61.6768C385.606 10.7004 288.198 -11.2277 179.232 12.699C70.2669 36.6258 -8.99305 97.3468 2.2004 148.323C13.3938 199.3 110.802 221.228 219.767 197.301Z" fill="white"/>
</g>
<defs>
<clipPath id="clip0">
<rect width="400" height="210" fill="white"/>
</clipPath>
</defs>
</svg>
